<?xml version="1.0" encoding="UTF-8"?>
<svg width="16px" height="16px" viewBox="0 0 16 16" version="1.1" xmlns="http://www.w3.org/2000/svg" xmlns:xlink="http://www.w3.org/1999/xlink">
    <!-- Generator: Sketch 40.3 (33839) - http://www.bohemiancoding.com/sketch -->
    <title>Facebook</title>
    <desc>Created with Sketch.</desc>
    <defs></defs>
    <g id="Page-1" stroke="none" stroke-width="1" fill="none" fill-rule="evenodd">
        <path d="M8.28974149,15.5200005 L0.856631275,15.5200005 C0.383392511,15.5200005 0,15.1363654 0,14.6633692 L0,0.856631275 C0,0.383392511 0.383392511,0 0.856631275,0 L14.6634904,0 C15.1364867,0 15.5200005,0.383392511 15.5200005,0.856631275 L15.5200005,14.6633692 C15.5200005,15.1364867 15.1364867,15.5200005 14.6634904,15.5200005 L10.7085578,15.5200005 L10.7085578,9.50975903 L12.7259154,9.50975903 L13.0279491,7.16745146 L10.7085578,7.16745146 L10.7085578,5.67207517 C10.7085578,4.9939239 10.8968591,4.53184013 11.8692841,4.53184013 L13.1095504,4.53135513 L13.1095504,2.43639757 C12.8950591,2.40790382 12.1588291,2.34412632 11.3021978,2.34412632 C9.51388153,2.34412632 8.28962024,3.4357401 8.28962024,5.44024516 L8.28962024,7.16757271 L6.26717018,7.16757271 L6.26717018,9.50988028 L8.28974149,9.50988028 L8.28974149,15.5200005 L8.28974149,15.5200005 Z" id="Facebook" fill="#4460A0"></path>
    </g>
</svg>