<svg width="150" height="90" viewBox="0 0 750 450" xmlns="http://www.w3.org/2000/svg">
 <g>
  <title>Dialog Axiata logo</title>
  <g id="#ed1c24ff">
   <path id="svg_13" d="m340.309998,261.890015c2.98999,-12.680023 17.769989,-16.630005 28.730011,-19.790009c0.25,52.079987 0.079987,104.169983 0.089996,156.259979c-9.670013,0.040009 -19.330017,-0.039978 -29,0.040009c0.139984,-45.5 -0.220001,-91.019989 0.179993,-136.509979z" fill="#ed1c24"/>
   <path id="svg_14" d="m26.139999,247.619995c18.610001,0.110016 37.230003,-0.019989 55.849998,0.059998c20.870003,0.339996 42.170006,8.26001 56.140007,24.179993c28.449997,31.890015 22.659988,88.060028 -12.700012,112.600006c-13.690002,9.779999 -30.729996,14.220001 -47.439995,13.920013c-16.209999,0.040009 -32.419998,-0.119995 -48.629997,0.079987c-0.129997,-35.519989 -0.190002,-71.039978 0.020004,-106.549988c1.979996,-11.380005 15.37999,-13.160004 23.859993,-16.830017c-14.040001,-0.809998 -30.289997,-11.5 -27.099998,-27.459991m32.059998,27.98999c0.139999,31.840027 0.010002,63.680023 0.07,95.51001c13.460007,-0.309998 27.910004,1.940002 40.340004,-4.529999c29.589996,-14.699982 35.300003,-61.76001 9.099991,-82.329987c-13.97998,-11.26001 -32.839989,-8.650024 -49.509995,-8.650024z" fill="#ed1c24"/>
   <path id="svg_15" d="m172.460007,301.070007c4.329987,-11.649994 17.449997,-16.01001 28.179993,-19.809998c0.020004,39.049988 0.050003,78.099976 -0.020004,117.149994c-9.419998,-0.029999 -18.839996,-0.140015 -28.25,0.059998c-0.119995,-32.459991 -0.299988,-64.950012 0.090012,-97.399994z" fill="#ed1c24"/>
   <path id="svg_16" d="m240.369995,289.420013c16.200012,-6.790009 34.75,-8.279999 51.709991,-3.600006c10.51001,3.100006 19.77002,11.089996 23.450012,21.539978c4.600006,12.330017 3.440002,25.730011 3.619995,38.640015c-0.309998,17.470001 0.610016,35.040009 -0.470001,52.459991c-8.779999,-0.149994 -17.570007,-0.139984 -26.359985,-0.009979c-0.300018,-1.830017 -0.5,-3.680023 -0.610016,-5.52002c-15.859985,9.869995 -36.819977,9.51001 -53.969971,3.290009c-23.400024,-10.119995 -23.790024,-47.369995 -2.160004,-59.649994c17.149994,-9.240021 37.519989,-6.210022 56.139984,-4.920013c1.380005,-9.029999 -3.089996,-19.669983 -12.730011,-21.709991c-15.48999,-3.450012 -31.699982,-0.420013 -46.630005,4.230011c0.040009,-5.420013 -0.149963,-10.840027 0.059998,-16.26001c0.380005,-4.26001 4.280029,-7.029999 7.950012,-8.48999m16.230011,62.179993c-9.809998,4.48999 -10.910004,19.850006 -2.059998,25.869995c9.269989,5.950012 22.049988,4.089996 30.649994,-2.220001c7.429993,-5.959991 6.98999,-16.23999 6.529999,-24.820007c-11.420013,-2.339996 -24.26001,-4.070007 -35.119995,1.170013z" fill="#ed1c24"/>
   <path id="svg_17" d="m440.309998,283.429993c24.779999,-2.619995 51.480042,10.02002 62.070007,33.190002c12.650024,25.580017 3.099976,59.580017 -21.410034,74.399994c-26.409973,17.100006 -66.049957,11.900024 -84.659973,-14.319977c-14.329987,-19.540009 -14.359985,-48.100006 -0.51001,-67.900024c10.01001,-14.659973 26.950012,-23.809998 44.51001,-25.369995m-0.959991,26.040009c-8.050018,1.470001 -15.119995,6.670013 -19.550018,13.470001c-9.259979,14.98999 -5.529999,36.940002 9.170013,47.109985c11.529999,8.559998 29.049988,7.279999 39.200012,-2.879974c9.349945,-8.960022 11.829987,-23.370026 8.25,-35.51001c-4.400024,-15.540009 -21.210022,-25.779999 -37.070007,-22.190002z" fill="#ed1c24"/>
   <path id="svg_18" d="m532.450012,302.48999c15.73999,-20.48999 46.049988,-23.529999 68.549988,-13.509979c4.340027,1.629974 7.390015,5.559998 11.690002,7.089996c5.960022,-10.649994 19.869995,-11.029999 30.580017,-12.540009c0.039978,26.149994 0.01001,52.309998 0.019958,78.470001c0.150024,18.5 0.220032,38.709991 -10.789978,54.529999c-15.960022,20.440002 -46.330017,25.600006 -69.450012,15.350006c-7.659973,-4.559998 -3.769958,-14.670013 -4.73999,-21.899994c13.450012,3.049988 28.570007,4.5 41.01001,-2.690002c10.109985,-5.910004 13.390015,-18.619995 13.089966,-29.589996c-20.369995,15.629974 -51.389954,18.22998 -72.379944,2.369995c-23.130005,-17.869995 -24.650024,-55.110016 -7.580017,-77.580017m42.859985,5.940002c-9.97998,1.02002 -19.049988,8.149994 -22.309998,17.640015c-3.460022,9.899994 -2.099976,21.839996 5.099976,29.789978c11.559998,12.76001 33.840027,13.200012 46.320007,1.560028c11.290039,-10.920013 10.179993,-31.120026 -1.450012,-41.380005c-7.429993,-6.720001 -17.919983,-8.850006 -27.659973,-7.610016z" fill="#ed1c24"/>
  </g>
  <metadata id="svg_82">image/svg+xmlAxiata logo</metadata>
  <defs>
   <linearGradient x1="0.500769" y1="1.009447" x2="0.500769" y2="-0.012474" spreadMethod="pad" id="svg_73">
    <stop offset="0" id="svg_81" stop-color="#f1471d"/>
    <stop offset="1" id="svg_80" stop-color="#f68712"/>
   </linearGradient>
   <linearGradient x1="-0.000618" y1="0.496774" x2="0.993684" y2="0.496774" spreadMethod="pad" id="svg_68">
    <stop offset="0" id="svg_79" stop-color="#292b66"/>
    <stop offset="1" id="svg_78" stop-color="#c60e79"/>
   </linearGradient>
   <linearGradient x1="-0.001277" y1="0.500096" x2="0.986725" y2="0.500096" spreadMethod="pad" id="svg_56">
    <stop offset="0" id="svg_77" stop-color="#b21935"/>
    <stop offset="1" id="svg_76" stop-color="#ec1159"/>
   </linearGradient>
   <clipPath clipPathUnits="userSpaceOnUse" id="svg_74">
    <path d="m-263.200012,851.490051l595.276001,0l0,-841.890015l-595.276001,0l0,841.890015z" id="svg_75"/>
   </clipPath>
  </defs>
  <g id="svg_85">
   <g transform="matrix(1.41499 0 0 1.37487 -1841.93 -682.099)" id="svg_84">
    <title>Layer 1</title>
    <g id="svg_69" transform="matrix(1.25 0 0 -1.25 -147.049 705.702)">
     <g id="svg_70">
      <g id="svg_71">
       <path d="m1522.005615,75.714005l47.43103,27.382996l-47.43103,27.391983l0,-54.774979z" id="svg_72" fill="url(#svg_73)"/>
      </g>
     </g>
    </g>
    <g id="svg_63" transform="matrix(1.25 0 0 -1.25 -147.049 705.702)">
     <g id="svg_64">
      <g id="svg_65">
       <g id="svg_66">
        <path d="m1522.005615,75.714005l0,0l47.43103,-27.389996l0,54.772007l-0.000977,0l-47.430054,-27.382011z" id="svg_67" fill="url(#svg_68)"/>
       </g>
      </g>
     </g>
    </g>
    <g id="svg_61" transform="matrix(1.25 0 0 -1.25 -147.049 705.702)">
     <path d="m1474.556641,48.324009l47.448975,-27.393999l0,54.784994l-47.448975,-27.390995z" id="svg_62" fill-rule="nonzero" fill="#ee1e80"/>
    </g>
    <g id="svg_59" transform="matrix(1.25 0 0 -1.25 -147.049 705.702)">
     <path d="m1474.556641,157.879044l0,-54.772034l47.448975,27.384003l-47.448975,27.388031z" id="svg_60" fill-rule="nonzero" fill="#fab220"/>
    </g>
    <g id="svg_57" transform="matrix(1.25 0 0 -1.25 -147.049 705.702)">
     <path d="m1522.005615,130.48996l0,0l-47.448975,-27.383926l47.448975,-27.392029l0,54.775955z" id="svg_58" fill-rule="nonzero" fill="#f68712"/>
    </g>
    <g id="svg_52" transform="matrix(1.25 0 0 -1.25 -147.049 705.702)">
     <g id="svg_53">
      <g id="svg_54">
       <path d="m1522.005615,20.931021l47.43103,27.392988l-47.43103,27.389996l0,-54.782984z" id="svg_55" fill="url(#svg_56)"/>
      </g>
     </g>
    </g>
   </g>
  </g>
 </g>

</svg>